<svg id="visual" viewBox="0 0 1920 1080" width="1920" height="1080" xmlns="http://www.w3.org/2000/svg" xmlns:xlink="http://www.w3.org/1999/xlink" version="1.1"><path d="M0 141L175 98L349 109L524 87L698 141L873 217L1047 141L1222 271L1396 174L1571 271L1745 260L1920 239L1920 0L1745 0L1571 0L1396 0L1222 0L1047 0L873 0L698 0L524 0L349 0L175 0L0 0Z" fill="#c5c5c5"></path><path d="M0 217L175 303L349 206L524 239L698 217L873 455L1047 282L1222 390L1396 390L1571 455L1745 476L1920 476L1920 237L1745 258L1571 269L1396 172L1222 269L1047 139L873 215L698 139L524 85L349 107L175 96L0 139Z" fill="#909090"></path><path d="M0 660L175 638L349 401L524 573L698 401L873 595L1047 509L1222 627L1396 617L1571 606L1745 811L1920 854L1920 474L1745 474L1571 453L1396 388L1222 388L1047 280L873 453L698 215L524 237L349 204L175 301L0 215Z" fill="#5e5e5e"></path><path d="M0 919L175 951L349 930L524 897L698 941L873 995L1047 919L1222 897L1396 919L1571 951L1745 1005L1920 1005L1920 852L1745 809L1571 604L1396 615L1222 625L1047 507L873 593L698 399L524 571L349 399L175 636L0 658Z" fill="#303030"></path><path d="M0 1081L175 1081L349 1081L524 1081L698 1081L873 1081L1047 1081L1222 1081L1396 1081L1571 1081L1745 1081L1920 1081L1920 1003L1745 1003L1571 949L1396 917L1222 895L1047 917L873 993L698 939L524 895L349 928L175 949L0 917Z" fill="#000000"></path></svg>